<svg width="22" height="14" viewBox="0 0 22 14" fill="none" xmlns="http://www.w3.org/2000/svg">
<path d="M5.08614 0.792681L0.793082 5.08521C0.541612 5.33663 0.342129 5.63514 0.206029 5.96368C0.0699287 6.29223 -0.00012207 6.64437 -0.00012207 7C-0.00012207 7.35563 0.0699287 7.70777 0.206029 8.03632C0.342129 8.36486 0.541612 8.66337 0.793082 8.91479L5.08614 13.2073C5.59375 13.7149 6.28212 14 6.99988 14C7.71764 14 8.40601 13.7149 8.91362 13.2073L13.2067 8.91479C13.4581 8.66337 13.6576 8.36486 13.7937 8.03632C13.9298 7.70777 13.9999 7.35563 13.9999 7C13.9999 6.64437 13.9298 6.29223 13.7937 5.96368C13.6576 5.63514 13.4581 5.33663 13.2067 5.08521L8.91362 0.792681C8.40601 0.285127 7.71764 0 6.99988 0C6.28212 0 5.59375 0.285127 5.08614 0.792681Z" fill="white"/>
<path d="M13.1774 13.2074L11.9999 12.019L14.1244 9.87224C14.4977 9.49516 14.7938 9.04749 14.9958 8.55478C15.1978 8.06208 15.3017 7.53399 15.3017 7.00068C15.3017 6.46737 15.1978 5.93928 14.9958 5.44657C14.7938 4.95386 14.4977 4.50619 14.1244 4.12911L11.9999 1.98373L13.1774 0.792605C13.6798 0.2851 14.3611 0 15.0715 0C15.7819 0 16.4633 0.2851 16.9657 0.792605L21.2148 5.08608C21.4637 5.33747 21.6611 5.63595 21.7958 5.96446C21.9305 6.29297 21.9999 6.64508 21.9999 7.00068C21.9999 7.35627 21.9305 7.70838 21.7958 8.03689C21.6611 8.36541 21.4637 8.66389 21.2148 8.91528L16.9657 13.2074C16.4633 13.7149 15.7819 14 15.0715 14C14.3611 14 13.6798 13.7149 13.1774 13.2074Z" fill="white"/>
</svg>
